<svg
   width="{{ .width }}"
   height="{{ .height }}"
   viewBox="0 0 72 72"
   version="1.1"
   id="svg13"
   sodipodi:docname="fediverse.svg"
   inkscape:version="1.3.2 (091e20ef0f, 2023-11-25)"
   fill="{{ .fill }}"
   xmlns:inkscape="http://www.inkscape.org/namespaces/inkscape"
   xmlns:sodipodi="http://sodipodi.sourceforge.net/DTD/sodipodi-0.dtd"
   xmlns="http://www.w3.org/2000/svg"
   xmlns:svg="http://www.w3.org/2000/svg">
  <title
     id="title1">Mastodon</title>
  <description>Mastodon social network logo</description>
  <defs
     id="defs17" />
  <sodipodi:namedview
     id="namedview15"
     pagecolor="#505050"
     bordercolor="#eeeeee"
     borderopacity="1"
     inkscape:showpageshadow="0"
     inkscape:pageopacity="0"
     inkscape:pagecheckerboard="0"
     inkscape:deskcolor="#505050"
     inkscape:document-units="px"
     showgrid="false"
     showguides="false"
     inkscape:zoom="5.3945102"
     inkscape:cx="46.250724"
     inkscape:cy="40.596827"
     inkscape:window-width="1296"
     inkscape:window-height="768"
     inkscape:window-x="60"
     inkscape:window-y="27"
     inkscape:window-maximized="0"
     inkscape:current-layer="layer1" />
  <g
     inkscape:groupmode="layer"
     id="layer1"
     inkscape:label="logo">
    <path
       id="Rounded"
       style="stroke-width:1"
       d="M 8 0 C 3.581725 0 -1.1842367e-15 3.5817274 0 8 L 0 64 C 0 68.418264 3.581725 72 8 72 L 64 72 C 68.418275 72 72 68.418264 72 64 L 72 8 C 72 3.5817274 68.418275 0 64 0 L 8 0 z M 35.917969 8.1582031 L 36.091797 8.1582031 C 43.199007 8.2164051 50.041532 8.9875423 54.025391 10.820312 C 54.025391 10.820312 61.925781 14.359788 61.925781 26.439453 C 61.925781 26.439453 62.025277 35.353278 60.824219 41.541016 C 60.061951 45.469067 53.996789 49.766477 47.03125 50.599609 C 43.399023 51.033727 39.823201 51.433019 36.009766 51.257812 C 29.773248 50.971602 24.851563 49.767578 24.851562 49.767578 C 24.851562 50.375703 24.889966 50.954572 24.964844 51.496094 C 25.775633 57.661032 31.067083 58.028965 36.080078 58.201172 C 41.139799 58.374579 45.644531 56.953125 45.644531 56.953125 L 45.853516 61.535156 C 45.853516 61.535156 42.314273 63.436996 36.009766 63.787109 C 32.533286 63.978516 28.217125 63.700138 23.189453 62.367188 C 12.285282 59.476275 10.409983 47.83474 10.123047 36.021484 C 10.035587 32.51405 10.087891 29.205559 10.087891 26.439453 C 10.087891 14.359788 17.990234 10.820312 17.990234 10.820312 C 21.974393 8.9875423 28.810759 8.2164054 35.917969 8.1582031 z M 27.875 17.595703 C 25.316235 17.595703 23.253645 18.496436 21.679688 20.253906 C 20.153354 22.011375 19.394531 24.387635 19.394531 27.376953 L 19.394531 42.003906 L 25.179688 42.003906 L 25.179688 27.806641 C 25.179687 24.814023 26.436734 23.294922 28.951172 23.294922 C 31.731279 23.294922 33.125 25.097215 33.125 28.660156 L 33.125 36.431641 L 38.875 36.431641 L 38.875 28.660156 C 38.875 25.097215 40.268719 23.294922 43.048828 23.294922 C 45.563266 23.294922 46.820312 24.814023 46.820312 27.806641 L 46.820312 42.003906 L 52.605469 42.003906 L 52.605469 27.376953 C 52.605469 24.387635 51.846347 22.011375 50.320312 20.253906 C 48.746056 18.496436 46.683466 17.595703 44.125 17.595703 C 41.164284 17.595703 38.923412 18.735835 37.441406 21.015625 L 36 23.435547 L 34.558594 21.015625 C 33.076288 18.735835 30.835416 17.595703 27.875 17.595703 z "
       fill="{{ .fill }}" />
  </g>
</svg>
