<svg
   xmlns:dc="http://purl.org/dc/elements/1.1/"
   xmlns:cc="http://creativecommons.org/ns#"
   xmlns:rdf="http://www.w3.org/1999/02/22-rdf-syntax-ns#"
   xmlns:svg="http://www.w3.org/2000/svg"
   xmlns="http://www.w3.org/2000/svg"
   xmlns:sodipodi="http://sodipodi.sourceforge.net/DTD/sodipodi-0.dtd"
   xmlns:inkscape="http://www.inkscape.org/namespaces/inkscape"
   viewBox="0 0 72 72"
   version="1.1"
   id="svg4"
   sodipodi:docname="linkedin.svg"
   inkscape:version="0.92.2 5c3e80d, 2017-08-06"
   width="{{ .width }}"
   height="{{ .height }}"
   fill="{{ .fill }}">
  <title>LinkedIn</title>
  <desc>LinkedIn social media site logo</desc>
  <metadata
     id="metadata10">
    <rdf:RDF>
      <cc:Work
         rdf:about="">
        <dc:format>image/svg+xml</dc:format>
        <dc:type
           rdf:resource="http://purl.org/dc/dcmitype/StillImage" />
        <dc:title></dc:title>
      </cc:Work>
    </rdf:RDF>
  </metadata>
  <defs
     id="defs8" />
  <sodipodi:namedview
     pagecolor="#ffffff"
     bordercolor="#666666"
     borderopacity="1"
     objecttolerance="10"
     gridtolerance="10"
     guidetolerance="10"
     inkscape:pageopacity="0"
     inkscape:pageshadow="2"
     inkscape:window-width="2062"
     inkscape:window-height="1014"
     id="namedview6"
     showgrid="false"
     inkscape:zoom="3.6875"
     inkscape:cx="-76.881356"
     inkscape:cy="49.898305"
     inkscape:window-x="895"
     inkscape:window-y="334"
     inkscape:window-maximized="0"
     inkscape:current-layer="svg4" />
  <g
     id="Linkedin">
    <path
       id="path2"
       d="M 66.242154,0 H 6.1515934 C 2.869493,0 0,2.3631154 0,5.6077106 V 65.829643 C 0,69.092994 2.869493,72 6.1515934,72 H 66.223398 c 3.300855,0 5.776497,-2.925762 5.776497,-6.170357 V 5.6077106 C 72.018653,2.3631154 69.524253,0 66.242154,0 Z M 22.31828,60.015629 H 12.003109 V 27.944777 H 22.31828 Z M 17.517036,23.068507 h -0.07503 c -3.300855,0 -5.438908,-2.45689 -5.438908,-5.53269 0,-3.132066 2.194318,-5.532691 5.570193,-5.532691 3.375874,0 5.438908,2.38187 5.513927,5.532691 0,3.0758 -2.138053,5.53269 -5.570192,5.53269 z M 60.015541,60.015629 H 49.700369 V 42.479813 c 0,-4.201095 -1.500388,-7.070592 -5.232604,-7.070592 -2.850738,0 -4.538676,1.931753 -5.28887,3.807241 -0.281323,0.675176 -0.356342,1.594166 -0.356342,2.531909 V 60.015629 H 28.507382 V 27.944777 h 10.315171 v 4.463662 c 1.500388,-2.138056 3.844745,-5.213857 9.302409,-5.213857 6.770503,0 11.890579,4.463662 11.890579,14.084918 z"
       inkscape:connector-curvature="0"
       fill="{{ .fill }}"
       style="stroke-width:1.08561206" />
  </g>
</svg>
