<svg
   viewBox="0 0 72 72"
   version="1.1"
   id="svg4"
   sodipodi:docname="rss.svg"
   inkscape:version="1.3.2 (091e20ef0f, 2023-11-25)"
   width="{{ .width }}"
   height="{{ .height }}"
   fill="{{ .fill }}"
   xmlns:inkscape="http://www.inkscape.org/namespaces/inkscape"
   xmlns:sodipodi="http://sodipodi.sourceforge.net/DTD/sodipodi-0.dtd"
   xmlns="http://www.w3.org/2000/svg"
   xmlns:svg="http://www.w3.org/2000/svg"
   xmlns:rdf="http://www.w3.org/1999/02/22-rdf-syntax-ns#"
   xmlns:cc="http://creativecommons.org/ns#"
   xmlns:dc="http://purl.org/dc/elements/1.1/">
  <title
     id="title574">RSS Feed</title>
  <desc
     id="desc576">RSS Feed Symbol</desc>
  <metadata
     id="metadata10">
    <rdf:RDF>
      <cc:Work
         rdf:about="">
        <dc:format>image/svg+xml</dc:format>
        <dc:type
           rdf:resource="http://purl.org/dc/dcmitype/StillImage" />
        <dc:title>RSS</dc:title>
      </cc:Work>
    </rdf:RDF>
  </metadata>
  <defs
     id="defs8" />
  <sodipodi:namedview
     pagecolor="#ffffff"
     bordercolor="#666666"
     borderopacity="1"
     objecttolerance="10"
     gridtolerance="10"
     guidetolerance="10"
     inkscape:pageopacity="0"
     inkscape:pageshadow="2"
     inkscape:window-width="1112"
     inkscape:window-height="713"
     id="namedview6"
     showgrid="false"
     inkscape:zoom="3.6875"
     inkscape:cx="32.40678"
     inkscape:cy="36.20339"
     inkscape:window-x="240"
     inkscape:window-y="27"
     inkscape:window-maximized="0"
     inkscape:current-layer="rss"
     inkscape:showpageshadow="0"
     inkscape:pagecheckerboard="0"
     inkscape:deskcolor="#d1d1d1"
     showguides="true" />
  <g
     id="rss"
     inkscape:label="rss">
    <path
       id="path2"
       d="M 6.1523438 0 C 2.8702562 0 1.1842367e-15 2.3628395 0 5.6074219 L 0 65.830078 C 0 69.093417 2.8702562 72 6.1523438 72 L 66.222656 72 C 67.514706 72 68.680741 71.552625 69.621094 70.8125 C 71.08309 69.661801 72 67.804632 72 65.830078 L 72 5.6074219 C 72.018758 2.3628395 69.524271 3.5527101e-15 66.242188 0 L 6.1523438 0 z M 9.8144531 9.8144531 C 32.465142 9.8144531 51.954897 24.512562 59.1875 44.8125 C 61.12805 50.259094 62.185547 56.108234 62.185547 62.185547 L 51.708984 62.185547 C 51.708984 39.200963 32.799037 20.289063 9.8144531 20.289062 L 9.8144531 9.8144531 z M 9.8144531 27.46875 C 28.858094 27.46875 44.53125 43.144089 44.53125 62.185547 L 34.349609 62.185547 C 34.349609 48.723851 23.276148 37.648438 9.8144531 37.648438 L 9.8144531 27.46875 z M 16.994141 47.816406 C 20.952568 47.816406 24.181642 51.045019 24.181641 55.007812 C 24.181641 58.964058 20.941308 62.185547 16.978516 62.185547 C 13.02227 62.185547 9.8144531 58.970604 9.8144531 55.007812 C 9.8144531 51.045019 13.031348 47.818588 16.994141 47.816406 z "
       fill="{{ .fill }}" />
  </g>
</svg>
