<svg
   width="{{ .width }}"
   height="{{ .height }}"
   viewBox="0 0 72 72"
   version="1.1"
   id="svg13"
   sodipodi:docname="fediverse.svg"
   inkscape:version="1.2.1 (9c6d41e4, 2022-07-14)"
   fill="{{ .fill }}"
   xmlns:inkscape="http://www.inkscape.org/namespaces/inkscape"
   xmlns:sodipodi="http://sodipodi.sourceforge.net/DTD/sodipodi-0.dtd"
   xmlns="http://www.w3.org/2000/svg"
   xmlns:svg="http://www.w3.org/2000/svg">
  <title>Mastodon</title>
  <description>Mastodon social network logo</description>
  <defs
     id="defs17" />
  <sodipodi:namedview
     id="namedview15"
     pagecolor="#505050"
     bordercolor="#eeeeee"
     borderopacity="1"
     inkscape:showpageshadow="0"
     inkscape:pageopacity="0"
     inkscape:pagecheckerboard="0"
     inkscape:deskcolor="#505050"
     inkscape:document-units="px"
     showgrid="false"
     showguides="false"
     inkscape:zoom="5.3945102"
     inkscape:cx="46.34341"
     inkscape:cy="40.689514"
     inkscape:window-width="1296"
     inkscape:window-height="841"
     inkscape:window-x="1642"
     inkscape:window-y="336"
     inkscape:window-maximized="0"
     inkscape:current-layer="layer1" />
  <g
     inkscape:groupmode="layer"
     id="layer1"
     inkscape:label="logo">
    <path
       d="M 8.0000006,72 H 64 c 4.418283,0 8,-3.581728 8,-8 V 8.0000028 C 72,3.5817214 68.418283,0 64,0 H 8.0000006 C 3.5817168,0 -5e-7,3.5817214 -5e-7,8.0000028 V 64 c 0,4.418272 3.5817173,8 8.0000011,8 z"
       id="Rounded"
       fill="{{ .fill }}"
       style="stroke-width:1" />
    <g
       id="g394"
       transform="matrix(0.23961311,0,0,0.24000971,5.4351768,5.3845875)">
      <path
         fill="#ffffff"
         d="m 231.1592,150.64168 c -3.18125,16.36625 -28.4925,34.2775 -57.5625,37.74875 -15.15875,1.80875 -30.08375,3.47125 -45.99875,2.74125 -26.0275,-1.1925 -46.564997,-6.2125 -46.564997,-6.2125 0,2.53375 0.15625,4.94625 0.46875,7.2025 3.38375,25.68625 25.469997,27.225 46.391247,27.9425 21.11625,0.7225 39.91875,-5.20625 39.91875,-5.20625 l 0.8675,19.09 c 0,0 -14.77,7.93125 -41.08125,9.39 -14.50875,0.7975 -32.523747,-0.365 -53.506247,-5.91875 -45.5075,-12.045 -53.33375,-60.55375 -54.53125,-109.77375 -0.365,-14.61375 -0.14,-28.393753 -0.14,-39.918753 0,-50.33 32.97625,-65.0825 32.97625,-65.0825 16.6275,-7.63625 45.15875,-10.8475 74.819997,-11.09 h 0.72875 c 29.66125,0.2425 58.21125,3.45375 74.8375,11.09 0,0 32.975,14.7525 32.975,65.0825 0,0 0.41375,37.133753 -4.59875,62.915003"
         id="path9" />
      <path
         fill="{{ .fill }}"
         d="M 196.8617,91.631177 V 152.57243 H 172.71795 V 93.422427 c 0,-12.46875 -5.24625,-18.7975 -15.74,-18.7975 -11.6025,0 -17.4175,7.5075 -17.4175,22.3525 V 129.35368 H 115.5592 V 96.977427 c 0,-14.845 -5.81625,-22.3525 -17.418747,-22.3525 -10.49375,0 -15.74,6.32875 -15.74,18.7975 V 152.57243 H 58.256703 V 91.631177 c 0,-12.455 3.17125,-22.3525 9.54125,-29.675 6.56875,-7.3225 15.17125,-11.07625 25.85,-11.07625 12.354997,0 21.711247,4.74875 27.897497,14.2475 l 6.01375,10.08125 6.015,-10.08125 c 6.185,-9.49875 15.54125,-14.2475 27.8975,-14.2475 10.6775,0 19.28,3.75375 25.85,11.07625 6.36875,7.3225 9.54,17.22 9.54,29.675"
         id="path11" />
    </g>
  </g>
</svg>
