<svg
   fill="{{ .fill }}"
   width="{{ .width }}"
   height="{{ .height }}"
   viewBox="0 0 72 72"
   version="1.1"
   id="svg1"
   sodipodi:docname="github.svg"
   inkscape:version="1.3.2 (091e20ef0f, 2023-11-25)"
   xmlns:inkscape="http://www.inkscape.org/namespaces/inkscape"
   xmlns:sodipodi="http://sodipodi.sourceforge.net/DTD/sodipodi-0.dtd"
   xmlns="http://www.w3.org/2000/svg"
   xmlns:svg="http://www.w3.org/2000/svg">
  <sodipodi:namedview
     id="namedview1"
     pagecolor="#ffffff"
     bordercolor="#000000"
     borderopacity="0.25"
     inkscape:showpageshadow="2"
     inkscape:pageopacity="0.0"
     inkscape:pagecheckerboard="0"
     inkscape:deskcolor="#d1d1d1"
     inkscape:zoom="7.125"
     inkscape:cx="36"
     inkscape:cy="36"
     inkscape:window-width="1366"
     inkscape:window-height="717"
     inkscape:window-x="0"
     inkscape:window-y="27"
     inkscape:window-maximized="1"
     inkscape:current-layer="Social-Icons---Rounded-Black" />
  <title
     id="title1">Github</title>
  <desc
     id="desc1">Github Logo</desc>
  <defs
     id="defs1" />
  <g
     id="Page-1"
     stroke="none"
     stroke-width="1"
     fill-rule="evenodd"
     fill="none">
    <g
       id="Social-Icons---Rounded-Black"
       transform="translate(-264.000000, -939.000000)">
      <path
         id="Rounded"
         d="M 272 939 C 267.58172 939 264 942.58172 264 947 L 264 1003 C 264 1007.4183 267.58172 1011 272 1011 L 328 1011 C 332.41828 1011 336 1007.4183 336 1003 L 336 947 C 336 942.58172 332.41828 939 328 939 L 272 939 z M 299.99805 952 C 313.25353 952 324 962.78617 324 976.0957 C 324 986.73671 317.1291 995.76247 307.59961 998.95508 C 306.38161 999.19151 305.95117 998.44141 305.95117 997.79688 C 305.95117 997.00626 305.98047 994.40872 305.98047 991.1875 C 305.98047 988.93912 305.21256 987.4705 304.35156 986.72656 C 309.69756 986.13021 315.30859 984.09147 315.30859 974.83594 C 315.30859 972.20505 314.3808 970.0543 312.8418 968.36914 C 313.0893 967.75924 313.91301 965.31174 312.60352 961.99414 C 312.60352 961.99414 310.59076 961.34558 306.00977 964.46289 C 304.09277 963.92828 302.04045 963.66284 300.00195 963.65234 C 297.96046 963.66288 295.90769 963.92828 293.99219 964.46289 C 289.40819 961.34558 287.39258 961.99414 287.39258 961.99414 C 286.08758 965.31174 286.9107 967.75924 287.1582 968.36914 C 285.6222 970.0543 284.6875 972.20505 284.6875 974.83594 C 284.6875 984.06888 290.28965 986.13574 295.61914 986.74414 C 294.93364 987.34652 294.3132 988.4077 294.0957 989.96484 C 292.7277 990.58228 289.25333 991.64493 287.11133 987.96289 C 287.11133 987.96289 285.84304 985.65065 283.43555 985.48047 C 283.43555 985.48047 281.09003 985.4499 283.26953 986.94531 C 283.26953 986.94531 284.84309 987.68577 285.93359 990.46875 C 285.93359 990.46875 287.34304 995.15547 294.01953 993.69922 C 294.03153 995.70966 294.05273 997.22462 294.05273 997.79688 C 294.05273 998.43539 293.61406 999.18036 292.41406 998.95898 C 282.87557 995.77241 276 986.73972 276 976.0957 C 276 962.78617 286.74556 952 299.99805 952 z "
         fill="{{ .fill }}" />
    </g>
  </g>
</svg>
