<svg
   fill="{{ .fill }}"
   width="{{ .width }}"
   height="{{ .height }}"
   viewBox="0 0 72 72"
   version="1.1"
   id="svg1"
   sodipodi:docname="stackoverflow.svg"
   inkscape:version="1.3.2 (091e20ef0f, 2023-11-25)"
   xmlns:inkscape="http://www.inkscape.org/namespaces/inkscape"
   xmlns:sodipodi="http://sodipodi.sourceforge.net/DTD/sodipodi-0.dtd"
   xmlns="http://www.w3.org/2000/svg"
   xmlns:svg="http://www.w3.org/2000/svg">
  <sodipodi:namedview
     id="namedview1"
     pagecolor="#ffffff"
     bordercolor="#000000"
     borderopacity="0.25"
     inkscape:showpageshadow="2"
     inkscape:pageopacity="0.0"
     inkscape:pagecheckerboard="0"
     inkscape:deskcolor="#d1d1d1"
     inkscape:zoom="7.125"
     inkscape:cx="36"
     inkscape:cy="36"
     inkscape:window-width="1366"
     inkscape:window-height="717"
     inkscape:window-x="0"
     inkscape:window-y="27"
     inkscape:window-maximized="1"
     inkscape:current-layer="stackoverflow" />
  <title
     id="title1">Stack Overflow</title>
  <desc
     id="desc1">Stack Overflow Logo</desc>
  <defs
     id="defs1" />
  <g
     id="Page-1"
     stroke="none"
     stroke-width="1"
     fill="none"
     fill-rule="evenodd">
    <g
       id="Social-Icons---Rounded-Black"
       transform="translate(-488.000000, -1163.000000)">
      <g
         id="stackoverflow"
         transform="translate(488.000000, 1163.000000)">
        <path
           id="Rounded"
           d="M 8 0 C 3.5817264 8.1162369e-16 0 3.5817264 0 8 L 0 64 C 5.4108246e-16 68.418274 3.5817264 72 8 72 L 64 72 C 68.418274 72 72 68.418274 72 64 L 72 8 C 72 3.5817264 68.418274 -1.1842367e-15 64 0 L 8 0 z M 51.730469 12 L 55 30.669922 L 50.978516 31.363281 L 47.708984 12.691406 L 51.730469 12 z M 39.478516 15.951172 L 50.246094 31.609375 L 46.875 33.888672 L 36.107422 18.232422 L 39.478516 15.951172 z M 29.75 24.816406 L 46.210938 34.443359 L 44.136719 37.929688 L 27.675781 28.300781 L 29.75 24.816406 z M 25.345703 34.154297 L 43.800781 39.072266 L 42.742188 42.982422 L 24.285156 38.0625 L 25.345703 34.154297 z M 17 40.279297 L 20.265625 40.279297 L 20.265625 56.824219 L 45.332031 56.824219 L 45.332031 40.279297 L 48.580078 40.279297 L 48.580078 60 L 17 60 L 17 40.279297 z M 23.515625 42.615234 L 42.544922 44.355469 L 42.171875 48.384766 L 23.140625 46.646484 L 23.515625 42.615234 z M 42.083984 49.544922 L 42.085938 53.591797 L 22.974609 53.601562 L 22.972656 49.554688 L 42.083984 49.544922 z "
           fill="{{ .fill }}" />
      </g>
    </g>
  </g>
</svg>
